HIERARCHY
ROOT Hips
{
  OFFSET -36.9405 89.3161 -44.1405
  CHANNELS 6 Xposition Yposition Zposition Zrotation Xrotation Yrotation
  JOINT ToSpine
  {
    OFFSET -2.69724 7.43032 -0.144315
    CHANNELS 3 Zrotation Xrotation Yrotation
    JOINT Spine
    {
      OFFSET -0.0310711 10.7595 1.96963
      CHANNELS 3 Zrotation Xrotation Yrotation
      JOINT Spine1
      {
        OFFSET 13.1342 3.43533 0.764692
        CHANNELS 3 Zrotation Xrotation Yrotation
        JOINT Neck
        {
          OFFSET 29.8703 7.82586 -0.130764
          CHANNELS 3 Zrotation Xrotation Yrotation
          JOINT Head
          {
            OFFSET 9.52751 0.295786 -0.907742
            CHANNELS 3 Zrotation Xrotation Yrotation
            End Site
            {
              OFFSET 16.4037 0.713936 2.7358
            }
          }
        }
        JOINT LeftShoulder
        {
          OFFSET 27.5574 4.95586 2.47156
          CHANNELS 3 Zrotation Xrotation Yrotation
          JOINT LeftArm
          {
            OFFSET 1.20734 -0.998971 20.1238
            CHANNELS 3 Zrotation Xrotation Yrotation
            JOINT LeftForeArm
            {
              OFFSET 26.8049 -0.0536703 -0.155908
              CHANNELS 3 Zrotation Xrotation Yrotation
              JOINT LeftHand
              {
                OFFSET 26.6817 0 0.320147
                CHANNELS 3 Zrotation Xrotation Yrotation
                End Site
                {
                  OFFSET 18.6119 0 0.382219
                }
              }
            }
          }
        }
        JOINT RightShoulder
        {
          OFFSET 27.5927 4.71444 -2.65209
          CHANNELS 3 Zrotation Xrotation Yrotation
          JOINT RightArm
          {
            OFFSET 2.83739 -1.17114 -18.7564
            CHANNELS 3 Zrotation Xrotation Yrotation
            JOINT RightForeArm
            {
              OFFSET 28.839 -0.0548439 1.22491
              CHANNELS 3 Zrotation Xrotation Yrotation
              JOINT RightHand
              {
                OFFSET 26.5114 0 -0.101894
                CHANNELS 3 Zrotation Xrotation Yrotation
                End Site
                {
                  OFFSET 18.2168 0 0
                }
              }
            }
          }
        }
      }
    }
  }
  JOINT LeftUpLeg
  {
    OFFSET -4.76168 -1.9167 -10.2353
    CHANNELS 3 Zrotation Xrotation Yrotation
    JOINT LeftLeg
    {
      OFFSET 2.55951 -42.0585 -8.02213
      CHANNELS 3 Zrotation Xrotation Yrotation
      JOINT LeftFoot
      {
        OFFSET 3.16357 -42.5282 -3.95426
        CHANNELS 3 Zrotation Xrotation Yrotation
        JOINT LeftToeBase
        {
          OFFSET 0.346054 -6.02161 12.8035
          CHANNELS 3 Zrotation Xrotation Yrotation
          End Site
          {
            OFFSET 0.134235 -1.35082 5.13018
          }
        }
      }
    }
  }
  JOINT RightUpLeg
  {
    OFFSET -4.94151 -1.41743 10.6446
    CHANNELS 3 Zrotation Xrotation Yrotation
    JOINT RightLeg
    {
      OFFSET -2.56294 -42.0364 -7.94377
      CHANNELS 3 Zrotation Xrotation Yrotation
      JOINT RightFoot
      {
        OFFSET -3.0952 -42.555 -4.02241
        CHANNELS 3 Zrotation Xrotation Yrotation
        JOINT RightToeBase
        {
          OFFSET -0.0828122 -6.13587 12.8035
          CHANNELS 3 Zrotation Xrotation Yrotation
          End Site
          {
            OFFSET -0.131328 -1.35082 5.13018
          }
        }
      }
    }
  }
}
MOTION
Frames:	17
Frame Time:	0.0333333
-37.9949 92.9516 -40.7734 68.554 -28.2649 -8.88241 -70.1915 0 88.8779 91.4481 72.5338 -7.62114 0.077741 21.2108 4.80692 -126.131 30.3187 165.504 -176.915 71.7994 -149.19 -0.0221904 -15.7048 -29.7199 -79.1347 27.4281 -136.789 17.9235 -3.66631 -100.4 0.420957 0.000575562 0.358661 -1.62473 6.31337 40.339 -137.951 1.27732 96.365 16.7286 -1.24627 85.6722 0.58676 0.000331055 0.064665 -42.0557 15.6377 99.0033 -4.74365 51.36 -12.5384 -0.976845 -13.1277 -1.12652 5.32272 -13.3607 16.2319 -40.727 -16.2109 72.9418 1.42663 37.2335 -1.2628 -5.21623 -2.93654 0.918422 1.11824 -8.41371 -1.18741 
-38.4294 92.747 -40.2819 68.5347 -27.3934 -8.15062 -70.1915 0 88.8779 94.5601 72.0935 -10.6002 -1.07747 20.5606 5.87083 -125.274 30.2566 164.776 -175.054 72.0681 -150.582 -0.0281232 -15.7221 -29.7695 -78.9471 27.8602 -135.744 17.5094 -3.74893 -100.916 0.420957 0.000575562 0.358661 -1.5818 6.1856 40.2121 -138.164 1.25697 96.3207 16.4358 -1.15869 85.8932 0.58676 0.000331055 0.064665 -39.9404 17.155 98.5649 -5.39957 54.0496 -13.3856 -2.29949 -13.0669 -1.09563 6.82774 -15.7339 19.4129 -40.5066 -16.3105 71.5313 1.53456 38.3302 -0.854656 -5.20696 -3.56901 0.936302 1.15933 -8.33189 -1.74167 
-38.6811 92.5461 -40.0264 68.8008 -26.9022 -7.59975 -70.1915 0 88.8779 96.1912 71.7287 -12.2152 -1.35143 20.0597 6.48603 -124.673 30.0037 163.506 -172.281 72.3043 -153.141 0.0493922 -15.4561 -29.2474 -78.76 28.0625 -135.727 17.5341 -3.71887 -100.81 0.420957 0.000575562 0.358661 -1.64412 6.26833 40.8339 -138.203 1.62796 97.0612 16.2083 -1.35665 85.158 0.58676 0.000331055 0.064665 -38.5328 18.203 98.233 -6.05735 56.4868 -14.0999 -1.97048 -12.3131 -1.02733 9.36626 -19.1429 21.6845 -40.4773 -16.8067 70.0962 1.73299 39.4234 0.193326 -5.50119 -3.99351 0.978844 1.2507 -8.39194 -2.69047 
-38.7819 92.2537 -40.1469 68.9224 -27.1161 -7.22268 -70.1915 0 88.8779 96.7695 71.7469 -12.4349 -1.30289 19.9269 7.04496 -124.083 29.7202 162.175 -169.97 72.4911 -155.262 -0.00717275 -15.6937 -29.4683 -78.56 28.5509 -135.797 18.5102 -3.75889 -100.299 0.420957 0.000575562 0.358661 -1.69915 6.31477 41.4854 -138.275 2.48188 98.1576 15.7708 -1.76701 83.5933 0.58676 0.000331055 0.064665 -37.7487 18.9291 97.7052 -6.52494 58.4854 -13.0165 -2.14729 -13.4897 -1.14328 9.24122 -18.9971 20.9463 -40.0305 -16.8117 69.8691 1.84905 40.4737 0.48367 -5.66739 -4.13788 0.998546 1.33208 -8.74464 -3.21021 
-38.6578 91.8195 -40.511 69.1983 -27.7569 -6.95458 -70.1915 0 88.8779 96.74 71.8387 -11.9566 -0.981851 19.931 7.33799 -123.326 29.367 160.793 -168.312 72.621 -156.989 -0.0121499 -15.7698 -29.2809 -78.0694 29.2889 -135.742 19.4741 -3.6966 -99.5664 0.420957 0.000575562 0.358661 -1.71984 6.39225 41.4651 -138.155 2.3981 98.8193 15.4334 -2.23072 81.8177 0.58676 0.000331055 0.064665 -38.3416 19.0253 97.3559 -6.45271 58.5963 -12.2267 -1.93528 -12.7607 -1.07206 8.78601 -18.4126 18.0291 -39.4143 -16.7351 70.5477 1.95542 41.8376 0.445579 -5.81891 -4.17365 1.01396 1.44675 -9.41706 -3.85401 
-38.356 91.4166 -41.0621 69.4933 -28.5716 -6.84903 -70.1915 0 88.8779 95.7691 72.0867 -11.0891 -0.618116 19.9049 8.09447 -122.36 29.0213 159.638 -168.087 72.7107 -156.874 -0.0574486 -15.9452 -29.5013 -77.6928 29.8046 -135.545 19.7346 -3.62016 -99.2216 0.420957 0.000575562 0.358661 -1.59753 6.04797 41.0699 -137.872 1.83005 99.278 14.9676 -2.61576 80.1684 0.58676 0.000331055 0.064665 -39.4638 18.6615 97.4104 -6.23649 57.9249 -12.0844 -1.56308 -13.8377 -1.17902 7.22075 -16.0992 15.2842 -38.8623 -16.6766 71.6261 2.0738 42.9654 0.655294 -4.94392 -4.344 0.937276 1.49944 -9.35766 -4.5614 
-38.1627 91.1181 -41.6684 69.9452 -29.254 -6.7509 -70.1915 0 88.8779 94.6204 72.3636 -10.5837 -0.177197 19.8495 9.00237 -121.8 28.8245 158.495 -168.494 72.8981 -156.708 -0.133074 -16.2023 -29.9648 -77.4869 29.8586 -135.41 19.3977 -3.38333 -98.7584 0.420957 0.000575562 0.358661 -1.6812 6.23419 41.5625 -137.968 1.80272 99.4016 15.1315 -2.90161 79.2591 0.58676 0.000331055 0.064665 -40.1062 18.2441 97.9528 -6.13895 58.1734 -10.7547 -0.616553 -16.0912 -1.3911 5.52935 -13.5636 15.0336 -38.5013 -16.6743 72.7701 2.10956 43.8259 0.427058 -4.09275 -4.59803 0.870301 1.50093 -8.9254 -4.98305 
-37.9591 90.7697 -42.21 70.5224 -29.7522 -6.59976 -70.1915 0 88.8779 93.9274 72.5738 -10.5719 0.278987 19.9812 9.17335 -121.164 28.1732 156.144 -166.072 73.0571 -159.171 -0.0372201 -15.9645 -29.0539 -76.8759 29.9364 -136.003 19.3216 -3.09057 -97.9955 0.420957 0.000575562 0.358661 -1.5954 5.82709 42.0624 -138.154 1.39832 98.9278 14.8425 -2.82306 79.3344 0.58676 0.000331055 0.064665 -40.6833 17.7126 98.2247 -6.09583 58.5635 -9.54688 0.697497 -17.0475 -1.43698 5.6303 -13.7824 15.8244 -38.213 -16.7942 73.8023 2.1374 44.8176 -0.0513456 -3.73306 -5.12403 0.860696 1.43758 -8.43926 -4.70692 
-37.7827 90.3604 -42.6396 71.1392 -30.2556 -6.36908 -70.1915 0 88.8779 94.4645 72.7956 -11.2536 0.418908 20.3599 8.77095 -120.911 27.9178 154.577 -164.661 73.304 -160.586 -0.0529076 -16.1882 -28.5745 -76.6258 29.5989 -136.139 18.942 -2.80547 -97.3784 0.420957 0.000575562 0.358661 -1.57229 5.46818 43.4758 -138.156 1.89341 98.2883 14.1464 -2.48716 80.0917 0.58676 0.000331055 0.064665 -41.579 17.3331 98.3315 -5.96154 58.6769 -8.37696 0.873472 -20.0666 -1.67037 4.22119 -11.5842 15.1305 -38.0133 -16.9325 74.489 2.31607 45.9199 0.498776 -4.03689 -5.25691 0.893204 1.62381 -9.23125 -6.26324 
-37.6558 90.1635 -42.9186 71.3424 -30.5031 -6.18713 -70.1915 0 88.8779 93.5832 72.8829 -10.3059 0.521519 20.499 8.47334 -121.204 28.1662 154.939 -166.146 73.3868 -159.085 -0.0229307 -16.049 -28.496 -76.6732 28.955 -135.911 18.5426 -2.63081 -97.058 0.420957 0.000575562 0.358661 -1.59668 5.52579 43.5958 -137.958 1.97924 97.0441 14.0858 -2.21132 81.1106 0.58676 0.000331055 0.064665 -41.577 17.1812 98.1502 -6.1775 59.2828 -8.54182 1.654 -20.4798 -1.65241 4.18375 -11.7284 16.7445 -37.8847 -17.039 74.7085 2.41536 46.4266 0.845508 -3.6064 -5.52787 0.868537 1.65094 -9.1158 -6.61155 
-37.5382 89.9266 -43.1467 71.7608 -30.5451 -5.76606 -70.1915 0 88.8779 93.9238 72.809 -10.5635 0.550372 20.4554 8.44941 -122.168 28.8802 156.463 -168.903 73.453 -156.732 0.00321545 -15.9089 -28.4889 -76.861 28.5963 -135.413 17.9322 -2.55536 -97.1076 0.420957 0.000575562 0.358661 -1.57612 5.46293 43.5704 -137.637 2.02465 95.6975 14.343 -2.00802 82.0416 0.58676 0.000331055 0.064665 -41.4756 17.1899 97.8889 -6.40691 60.095 -8.31403 2.30347 -20.4599 -1.6177 4.48261 -12.2551 17.4528 -38.1866 -17.2916 74.365 2.48801 46.7423 1.07337 -4.19292 -5.49861 0.916554 1.66271 -9.70956 -6.30331 
-37.4055 89.9052 -43.2608 72.1954 -30.849 -5.52595 -70.1915 0 88.8779 95.3557 72.6074 -11.6133 0.0976175 20.3004 8.46371 -123.187 29.9194 160.261 -174.933 73.097 -150.798 0.0232085 -15.4924 -29.6393 -77.1628 28.8392 -134.101 18.0522 -2.81454 -97.8207 0.420957 0.000575562 0.358661 -1.78641 6.21527 43.2872 -137.002 2.28272 94.8379 14.6075 -1.96134 82.3604 0.58676 0.000331055 0.064665 -41.9292 17.1642 97.9389 -6.4892 60.3157 -8.36533 2.57147 -20.7167 -1.61856 4.38149 -12.2245 18.4972 -38.7081 -17.4458 74.0328 2.51527 46.5682 1.41462 -4.54573 -5.10392 0.929478 1.68498 -10.6796 -5.61211 
-37.2642 89.8864 -43.2931 72.2668 -31.4453 -5.44934 -70.1915 0 88.8779 95.6871 72.7833 -11.2679 0.0413478 20.6766 7.95035 -123.82 30.1773 161.344 -173.999 73.0334 -151.673 0.053512 -15.44 -29.2259 -77.0398 29.7568 -133.623 17.9921 -2.9541 -98.2642 0.420957 0.000575562 0.358661 -1.73929 5.98247 43.6564 -136.88 2.43985 94.6224 14.1014 -1.95323 82.1187 0.58676 0.000331055 0.064665 -42.2259 17.4817 98.2165 -6.36243 60.3987 -7.42365 2.45187 -21.3958 -1.66843 3.92122 -11.4405 17.3736 -38.7724 -17.1722 74.2061 2.60699 46.532 2.07792 -3.88482 -4.92091 0.865319 1.7239 -10.5943 -6.28976 
-37.177 89.832 -43.32 72.4413 -31.8644 -5.16102 -70.1915 0 88.8779 96.6901 72.7209 -11.731 -0.0390523 20.7064 7.85586 -124.951 30.36 162.763 -173.83 72.756 -152.063 0.114062 -15.101 -29.3122 -77.009 30.3645 -133.291 17.885 -3.01801 -98.5094 0.420957 0.000575562 0.358661 -1.70919 5.99372 43.1186 -136.789 1.95439 94.8162 13.9074 -2.11899 81.3586 0.58676 0.000331055 0.064665 -42.4368 17.9314 98.4049 -6.19872 60.5832 -6.05948 1.99963 -22.2218 -1.75 3.51846 -10.4983 15.0932 -38.9781 -17.0931 73.8038 2.65696 46.5576 2.38257 -3.90866 -4.71628 0.858359 1.67393 -10.7262 -5.41976 
-37.0695 89.7873 -43.3083 72.4942 -32.0827 -5.12979 -70.1915 0 88.8779 96.8374 72.6921 -11.9224 -0.278647 20.6141 8.11793 -125.422 30.1733 163.084 -172.248 72.5175 -153.671 0.11226 -15.0644 -29.5067 -76.9602 30.744 -132.759 18.1705 -3.20437 -98.9037 0.420957 0.000575562 0.358661 -1.73539 6.06016 43.2187 -136.559 1.99822 95.2423 13.5503 -2.16913 80.9324 0.58676 0.000331055 0.064665 -42.4478 18.0036 98.419 -6.41471 60.9218 -6.66752 2.32221 -21.1088 -1.65757 4.54235 -12.2789 16.9181 -39.0347 -17.0828 73.7443 2.65337 46.611 2.28722 -3.53856 -4.91454 0.834641 1.58609 -10.3777 -4.58529 
-36.9984 89.7546 -43.2583 72.67 -32.2373 -5.08059 -70.1915 0 88.8779 96.9938 72.6829 -12.2066 -0.350804 20.6075 8.12734 -125.487 29.8956 162.319 -169.597 72.5071 -156.193 0.0854802 -15.2503 -29.3137 -76.9031 30.5791 -132.861 18.1594 -3.19081 -98.8701 0.420957 0.000575562 0.358661 -1.72467 5.97819 43.4426 -136.518 2.05991 95.5033 13.7493 -2.07445 81.4369 0.58676 0.000331055 0.064665 -42.5561 18.0236 98.4108 -6.52057 61.1778 -6.74292 2.43115 -20.5826 -1.61816 4.99226 -13.0267 17.7976 -39.1061 -17.0862 73.8801 2.67276 46.8376 2.24705 -3.34602 -5.1381 0.828703 1.53106 -10.0067 -4.25465 
-36.9322 89.6425 -43.2351 72.6526 -32.4237 -5.24999 -70.1915 0 88.8779 96.8087 72.5993 -12.2859 -0.656233 20.4807 8.21809 -124.893 29.499 161.51 -167.44 72.4222 -157.611 0.116728 -15.107 -29.2286 -76.5441 30.7762 -132.717 18.5569 -3.40104 -99.2565 0.420957 0.000575562 0.358661 -1.7532 6.01617 43.7146 -136.23 1.989 95.6073 13.7985 -1.83829 82.4023 0.58676 0.000331055 0.064665 -42.5744 18.0766 98.6395 -6.53544 61.4292 -6.27634 2.19629 -20.9563 -1.65546 4.79705 -12.6854 17.2115 -38.837 -17.2006 74.1146 2.69358 47.2668 2.04882 -3.50902 -5.41088 0.855981 1.45605 -9.82475 -3.50275 
